<?xml version="1.0" encoding="utf-8"?>
<!-- Generator: Adobe Illustrator 18.1.1, SVG Export Plug-In . SVG Version: 6.00 Build 0)  -->
<svg version="1.1" id="Layer_1" xmlns="http://www.w3.org/2000/svg" xmlns:xlink="http://www.w3.org/1999/xlink" x="0px" y="0px"
	 viewBox="0 0 137.2 38.5" enable-background="new 0 0 137.2 38.5" xml:space="preserve">
<g>
	<path fill="#BE202E" d="M1.8,10.4h4.3c0,0.4,0,0.6,0,0.7l0,2.2v1.1L9,11.2c0.6-0.3,1.1-0.5,1.6-0.7s1-0.2,1.4-0.2
		c0.8,0,1.7,0.3,2.5,0.8c0.9,0.5,1.5,1.2,2,2.2c0.3,0.6,0.5,1.4,0.5,2.3v11.6c0,0.8,0,1.3,0.1,1.8c0.1,0.4,0.3,1,0.6,1.7h-5.1
		c0.2-0.6,0.4-1.2,0.5-1.6c0.1-0.4,0.1-1,0.1-1.7V15.8c-0.3-0.8-0.7-1.3-1.3-1.7c-0.6-0.4-1.4-0.6-2.4-0.6c-0.7,0-1.4,0.1-1.9,0.3
		c-0.4,0.1-1,0.4-1.6,0.9v11.4c0,1.5,0.1,3,0.3,4.4H1.4c0.3-0.7,0.5-1.3,0.6-1.7c0.1-0.4,0.2-1.1,0.2-1.9c0.1-1.4,0.2-2.3,0.2-2.5
		V13.7C2.4,12.8,2.2,11.7,1.8,10.4z"/>
	<path fill="#BE202E" d="M36.4,25.6l-1.9,4c-1.7,0.6-3.2,0.9-4.5,0.9c-2.5,0-4.4-0.8-5.8-2.4c-1.4-1.6-2.1-4-2.1-7.3
		c0-3.4,0.8-6,2.3-7.7c1.5-1.7,3.4-2.6,5.7-2.6c2.4,0,4.3,1,5.5,2.9c0.8,1.3,1.3,3.3,1.3,6v1.5l-10.6,0.2c0.2,2.2,0.7,3.7,1.6,4.7
		c0.9,0.9,2,1.4,3.4,1.4c0.7,0,1.3-0.1,1.9-0.3C33.9,26.7,35,26.3,36.4,25.6z M34.4,18.6V18c0-1.8-0.4-3.1-1.1-3.9
		c-0.7-0.8-1.7-1.3-2.9-1.3c-1.2,0-2.1,0.4-2.8,1.2c-0.7,0.8-1.2,2.3-1.4,4.5H34.4z"/>
	<path fill="#BE202E" d="M39,10.4h5.8c-0.2,0.7-0.3,1.3-0.3,1.7c0,1,0.1,1.9,0.3,2.8l1.9,8.5l3.8-13h3.1l3.3,13.1l2.3-8.9
		c0.2-1,0.4-1.9,0.4-2.6c0-0.4-0.1-1-0.2-1.6h4.4c-0.8,1.3-1.3,2.3-1.5,2.9c-0.2,0.4-0.4,1.1-0.6,1.9l-3.9,15.4h-2.9l-3.5-14.1
		l-4,14.1h-2.9l-3.4-15.2c-0.2-0.9-0.4-1.8-0.7-2.4C40.1,12.1,39.6,11.3,39,10.4z"/>
	<path fill="#BE202E" d="M76.8,11.3v3.2c-0.7-0.7-1.4-1.1-1.9-1.4c-0.6-0.3-1.2-0.4-1.8-0.4c-0.9,0-1.6,0.3-2.1,0.8
		c-0.5,0.5-0.8,1.1-0.8,1.9c0,0.5,0.1,0.9,0.3,1.2c0.2,0.4,0.5,0.7,0.9,1c0.2,0.1,0.9,0.7,2.2,1.5c1.3,0.9,2.2,1.7,2.7,2.5
		c0.5,0.8,0.7,1.8,0.7,3c0,1.8-0.6,3.2-1.7,4.2c-1.1,1.1-2.7,1.6-4.9,1.6c-1.6,0-3.2-0.2-4.8-0.7l0.3-5.2c1.1,1.6,2,2.7,2.6,3.1
		c0.6,0.4,1.2,0.6,1.9,0.6c0.9,0,1.6-0.3,2.1-0.8c0.5-0.5,0.8-1.2,0.8-2c0-0.6-0.2-1.2-0.6-1.8c-0.3-0.4-0.9-0.9-1.7-1.4
		c-1.8-1.1-3-2.1-3.7-3.1c-0.6-0.9-1-2-1-3.2c0-1.5,0.6-2.8,1.9-3.9c1.2-1.1,2.9-1.7,4.9-1.7c0.6,0,1.2,0.1,1.7,0.2
		C75.2,10.7,75.9,11,76.8,11.3z"/>
	<path fill="#BE202E" d="M94.2,10.8L93.8,15c-0.7-0.7-1.4-1.3-2-1.6c-0.6-0.3-1.4-0.5-2.3-0.5c-1.7,0-3,0.6-4.1,1.8
		c-1.1,1.2-1.6,2.9-1.6,5.2c0,2.4,0.6,4.3,1.8,5.6c1.2,1.3,2.7,1.9,4.6,1.9c1.1,0,2.5-0.3,4.2-0.8l-2.1,3.3
		c-1.2,0.3-2.3,0.5-3.3,0.5c-2.6,0-4.9-0.9-6.6-2.7c-1.8-1.8-2.7-4-2.7-6.7c0-1.9,0.4-3.7,1.3-5.4s2.1-3,3.6-3.8
		c1.5-0.8,3.4-1.3,5.6-1.3C91.5,10.5,92.8,10.6,94.2,10.8z"/>
	<path fill="#BE202E" d="M97.1,2.7l5.3-1.1c-0.5,2.4-0.7,4.6-0.7,6.5v16.5c0,1.4,0.1,2.4,0.2,3.1c0.1,0.7,0.5,1.6,1,2.8h-6.5
		c1-1.8,1.5-3.3,1.5-4.6V7.1c0-0.7-0.1-1.4-0.1-2C97.6,4.6,97.4,3.7,97.1,2.7z"/>
	<path fill="#BE202E" d="M106.9,10.4h5.9c-0.4,0.7-0.6,1.3-0.7,1.8c-0.2,0.8-0.3,1.9-0.3,3.2v9.5c0,1.4,0.1,2.6,0.4,3.6
		c0.1,0.6,0.4,1.3,0.8,1.9h-6.1c0.5-0.8,0.8-1.5,0.9-2.1c0.1-0.6,0.2-1.9,0.2-3.7v-9.3c0-1.2-0.1-2.1-0.2-2.8
		C107.6,12,107.3,11.2,106.9,10.4z M110,1.9c0.7,0,1.3,0.3,1.9,0.9c0.5,0.6,0.8,1.3,0.8,2.1c0,0.8-0.3,1.5-0.8,2
		c-0.5,0.6-1.2,0.8-1.9,0.8c-0.8,0-1.4-0.3-1.9-0.8c-0.5-0.5-0.8-1.3-0.8-2.1c0-0.8,0.3-1.5,0.8-2.1C108.6,2.1,109.2,1.9,110,1.9z"
		/>
	<path fill="#BE202E" d="M117.5,10.4h5.2c-0.1,1.4-0.2,2.8-0.2,4.1c1.2-1.7,2.2-2.9,3-3.4c0.8-0.5,1.7-0.8,2.6-0.8
		c1.2,0,2.3,0.3,3.4,1c1.1,0.7,1.9,1.8,2.6,3.2c0.7,1.5,1,3.2,1,5.2c0,2-0.3,3.8-1,5.4s-1.6,2.7-2.8,3.5c-1.2,0.8-2.3,1.2-3.5,1.2
		c-1.7,0-3.4-0.8-5.3-2.5v3.8c0,1.4,0.1,2.4,0.2,3.1c0.2,0.7,0.5,1.5,0.9,2.4h-6.2c0.5-0.8,0.8-1.5,0.9-2.1c0.1-0.6,0.2-1.6,0.2-2.9
		V16.5c0-1.5-0.1-2.9-0.4-4C118.2,11.9,117.9,11.2,117.5,10.4z M122.5,26c1.2,0.5,2.2,0.8,3.1,0.8c1.6,0,2.9-0.6,3.9-1.8
		c1-1.2,1.6-2.9,1.6-5.3c0-2-0.5-3.6-1.5-4.7c-1-1.1-2.2-1.7-3.6-1.7c-0.6,0-1.2,0.1-1.7,0.3c-0.5,0.2-1.1,0.6-1.9,1.1V26z"/>
</g>
</svg>
